<?xml version="1.0" encoding="UTF-8" standalone="no"?>
<svg
   width="350"
   height="350"
   viewBox="0 0 262.5 262.5"
   version="1.1"
   id="svg9"
   sodipodi:docname="bl-logo-circular.svg"
   xmlns:inkscape="http://www.inkscape.org/namespaces/inkscape"
   xmlns:sodipodi="http://sodipodi.sourceforge.net/DTD/sodipodi-0.dtd"
   xmlns="http://www.w3.org/2000/svg"
   xmlns:svg="http://www.w3.org/2000/svg">
  <defs
     id="defs9" />
  <sodipodi:namedview
     id="namedview9"
     pagecolor="#ffffff"
     bordercolor="#000000"
     borderopacity="0.25"
     inkscape:showpageshadow="2"
     inkscape:pageopacity="0.0"
     inkscape:pagecheckerboard="0"
     inkscape:deskcolor="#d1d1d1"
     inkscape:document-units="pt" />
  <g
     id="#000000ff"
     transform="matrix(0.58233657,0,0,0.58327929,-3.8117206,-4.9285994)"
     style="fill:#00a2b2;fill-opacity:1">
    <path
       fill="#000000"
       opacity="1"
       d="m 225.36,8.56 c 32.76,-1.04 65.7,5.3 95.79,18.25 32.01,13.78 60.79,35.05 83.21,61.75 34.54,40.7 53.76,94.06 52.93,147.46 -0.36,43.08 -13.61,85.93 -37.5,121.77 -21.33,32.24 -51.17,58.79 -85.67,76.23 -40.99,20.97 -88.52,28.78 -134.08,22.2 C 150.03,449.23 102.67,424.76 68.09,387.97 42.68,361.22 24.08,328.07 14.42,292.47 6.22,262.46 4.42,230.74 9.04,199.99 14.46,163.77 28.94,128.95 50.79,99.56 68.88,75.13 91.98,54.43 118.26,39.16 150.65,20.22 187.85,9.55 225.36,8.56 m -5.19,17.67 c -18.74,1.1 -37.34,4.66 -55.12,10.72 -37.71,12.72 -71.58,36.57 -96.22,67.83 -24.95,31.4 -40.46,70.21 -43.95,110.17 -3.34,36.57 3.31,74 19.08,107.16 15.18,32.24 38.89,60.39 68.04,80.88 27.49,19.44 59.79,32.01 93.19,36.3 42.66,5.62 87,-2.5 124.91,-22.88 35.53,-18.91 65.29,-48.44 84.48,-83.82 22.92,-41.85 30.69,-91.74 21.45,-138.56 -6.17,-31.96 -20,-62.4 -40.05,-88.04 C 373.65,77.26 343.6,54.6 309.83,41.04 281.52,29.57 250.66,24.51 220.17,26.23 Z"
       id="path6"
       style="fill:#00a2b2;fill-opacity:1" />
    <path
       fill="#000000"
       opacity="1"
       d="m 135.96,67.72 c 35.43,19.9 70.4,40.66 105.78,60.67 -0.09,21.3 0.04,42.59 -0.06,63.89 -23.99,13.62 -47.74,27.67 -71.78,41.19 24.06,13.5 47.8,27.58 71.8,41.19 0.04,21.29 -0.01,42.58 0.03,63.87 -35.35,20.08 -70.4,40.7 -105.77,60.76 -0.04,-110.53 -0.04,-221.05 0,-331.57 m 33.38,57.5 c 0.14,23.42 0.12,46.85 0.01,70.27 12.8,-7.78 25.96,-14.98 38.87,-22.59 -0.08,-8.35 -0.19,-16.7 0.06,-25.04 -12.91,-7.66 -26.09,-14.88 -38.94,-22.64 m 0.05,146.28 c 0.01,23.4 0.14,46.81 -0.07,70.21 12.86,-7.73 26.01,-14.99 38.94,-22.61 -0.21,-8.36 -0.14,-16.72 -0.03,-25.07 -12.92,-7.56 -26.01,-14.84 -38.84,-22.53 z"
       id="path7"
       style="fill:#00a2b2;fill-opacity:1" />
    <path
       fill="#000000"
       opacity="1"
       d="m 256.28,138.17 c 0.31,-0.15 0.91,-0.45 1.22,-0.6 10.82,6.21 21.58,12.53 32.45,18.66 -0.27,38.82 0.09,77.65 -0.18,116.47 0.86,-0.85 1.81,-1.58 2.85,-2.21 32.61,-18.76 65.2,-37.56 97.8,-56.36 10.93,6.47 22,12.68 32.96,19.09 -2.12,2.1 -4.91,3.26 -7.42,4.79 -52.2,30.11 -104.43,60.16 -156.61,90.3 -0.96,0.71 -2.02,0.99 -3.18,0.83 0.3,-63.65 0.07,-127.32 0.11,-190.97 z"
       id="path8"
       style="fill:#00a2b2;fill-opacity:1" />
    <path
       fill="#000000"
       opacity="1"
       d="m 304.43,166.35 c 0.27,-0.32 0.81,-0.95 1.07,-1.27 20.2,12.06 40.76,23.54 61.09,35.38 2.92,1.8 6.11,3.2 8.78,5.39 -23.49,13.62 -47.01,27.2 -70.59,40.67 -0.16,-1.16 -0.26,-2.32 -0.29,-3.49 -0.03,-25.56 0.09,-51.12 -0.06,-76.68 m 17.36,27.96 c 0.21,7.48 0.22,14.98 0,22.46 6.39,-3.77 12.77,-7.56 19.31,-11.07 -6.51,-3.66 -13.24,-7.04 -19.31,-11.39 z"
       id="path9"
       style="fill:#00a2b2;fill-opacity:1" />
  </g>
</svg>
